// Inicio uml
@startuml

entity Autor {
    // El asterisco muestra que es la clave primaria
    * id : INT
    nom : VARCHAR(50)
    cognom : VARCHAR(50)
}

entity Llibre {
    * id : INT
    titol : VARCHAR(100)
    anyPublicacio : INT
    autorId : INT
}

// Relacion de agregacion, el autor puede tener muchos lirbos
// El simbolo ||--o{ indica una relacion de agregació con cardinalidad 1 a N
Autor ||--o{ Llibre : conté

@enduml
// Final uml
